<svg id="visual" viewBox="0 0 960 540" width="960" height="540" xmlns="http://www.w3.org/2000/svg" xmlns:xlink="http://www.w3.org/1999/xlink" version="1.1"><rect x="0" y="0" width="960" height="540" fill="#001220"></rect><path d="M0 189L22.8 189C45.7 189 91.3 189 137 190.7C182.7 192.3 228.3 195.7 274 191.5C319.7 187.3 365.3 175.7 411.2 170.2C457 164.7 503 165.3 548.8 174.5C594.7 183.7 640.3 201.3 686 196.3C731.7 191.3 777.3 163.7 823 155C868.7 146.3 914.3 156.7 937.2 161.8L960 167L960 541L937.2 541C914.3 541 868.7 541 823 541C777.3 541 731.7 541 686 541C640.3 541 594.7 541 548.8 541C503 541 457 541 411.2 541C365.3 541 319.7 541 274 541C228.3 541 182.7 541 137 541C91.3 541 45.7 541 22.8 541L0 541Z" fill="#3d1874"></path><path d="M0 277L22.8 289.5C45.7 302 91.3 327 137 337.2C182.7 347.3 228.3 342.7 274 341.8C319.7 341 365.3 344 411.2 338.2C457 332.3 503 317.7 548.8 299.5C594.7 281.3 640.3 259.7 686 255.7C731.7 251.7 777.3 265.3 823 281C868.7 296.7 914.3 314.3 937.2 323.2L960 332L960 541L937.2 541C914.3 541 868.7 541 823 541C777.3 541 731.7 541 686 541C640.3 541 594.7 541 548.8 541C503 541 457 541 411.2 541C365.3 541 319.7 541 274 541C228.3 541 182.7 541 137 541C91.3 541 45.7 541 22.8 541L0 541Z" fill="#6b2581"></path><path d="M0 352L22.8 361C45.7 370 91.3 388 137 391.3C182.7 394.7 228.3 383.3 274 376.2C319.7 369 365.3 366 411.2 372.3C457 378.7 503 394.3 548.8 408.3C594.7 422.3 640.3 434.7 686 433.8C731.7 433 777.3 419 823 405.8C868.7 392.7 914.3 380.3 937.2 374.2L960 368L960 541L937.2 541C914.3 541 868.7 541 823 541C777.3 541 731.7 541 686 541C640.3 541 594.7 541 548.8 541C503 541 457 541 411.2 541C365.3 541 319.7 541 274 541C228.3 541 182.7 541 137 541C91.3 541 45.7 541 22.8 541L0 541Z" fill="#94368c"></path></svg>