<svg id="visual" viewBox="0 0 960 540" width="960" height="540" xmlns="http://www.w3.org/2000/svg" xmlns:xlink="http://www.w3.org/1999/xlink" version="1.1"><rect x="0" y="0" width="960" height="540" fill="#033963"></rect><defs><linearGradient id="grad1_0" x1="43.8%" y1="0%" x2="100%" y2="100%"><stop offset="14.444444444444446%" stop-color="#033963" stop-opacity="1"></stop><stop offset="85.55555555555554%" stop-color="#033963" stop-opacity="1"></stop></linearGradient></defs><defs><linearGradient id="grad2_0" x1="0%" y1="0%" x2="56.3%" y2="100%"><stop offset="14.444444444444446%" stop-color="#033963" stop-opacity="1"></stop><stop offset="85.55555555555554%" stop-color="#033963" stop-opacity="1"></stop></linearGradient></defs><g transform="translate(960, 0)"><path d="M0 189C-28.5 176.5 -57 164 -86.5 149.8C-116 135.6 -146.4 119.8 -163.7 94.5C-180.9 69.2 -185 34.6 -189 0L0 0Z" fill="#FBAE3C"></path></g><g transform="translate(0, 540)"><path d="M0 -189C34.9 -185.1 69.7 -181.2 94.5 -163.7C119.3 -146.2 134 -115 148.1 -85.5C162.2 -56 175.6 -28 189 0L0 0Z" fill="#FBAE3C"></path></g></svg>