<svg id="visual" viewBox="0 0 960 540" width="960" height="540" xmlns="http://www.w3.org/2000/svg" xmlns:xlink="http://www.w3.org/1999/xlink" version="1.1"><rect x="0" y="0" width="960" height="540" fill="#001220"></rect><path d="M0 369L22.8 363C45.7 357 91.3 345 137 351.3C182.7 357.7 228.3 382.3 274 394.2C319.7 406 365.3 405 411.2 391.7C457 378.3 503 352.7 548.8 346C594.7 339.3 640.3 351.7 686 362.5C731.7 373.3 777.3 382.7 823 377.7C868.7 372.7 914.3 353.3 937.2 343.7L960 334L960 541L937.2 541C914.3 541 868.7 541 823 541C777.3 541 731.7 541 686 541C640.3 541 594.7 541 548.8 541C503 541 457 541 411.2 541C365.3 541 319.7 541 274 541C228.3 541 182.7 541 137 541C91.3 541 45.7 541 22.8 541L0 541Z" fill="#fa7268"></path><path d="M0 447L22.8 438.2C45.7 429.3 91.3 411.7 137 408.5C182.7 405.3 228.3 416.7 274 414.8C319.7 413 365.3 398 411.2 393.5C457 389 503 395 548.8 396.5C594.7 398 640.3 395 686 401.7C731.7 408.3 777.3 424.7 823 434.5C868.7 444.3 914.3 447.7 937.2 449.3L960 451L960 541L937.2 541C914.3 541 868.7 541 823 541C777.3 541 731.7 541 686 541C640.3 541 594.7 541 548.8 541C503 541 457 541 411.2 541C365.3 541 319.7 541 274 541C228.3 541 182.7 541 137 541C91.3 541 45.7 541 22.8 541L0 541Z" fill="#e34c67"></path><path d="M0 446L22.8 449.7C45.7 453.3 91.3 460.7 137 462.7C182.7 464.7 228.3 461.3 274 461.8C319.7 462.3 365.3 466.7 411.2 467.5C457 468.3 503 465.7 548.8 462.2C594.7 458.7 640.3 454.3 686 451.8C731.7 449.3 777.3 448.7 823 452.5C868.7 456.3 914.3 464.7 937.2 468.8L960 473L960 541L937.2 541C914.3 541 868.7 541 823 541C777.3 541 731.7 541 686 541C640.3 541 594.7 541 548.8 541C503 541 457 541 411.2 541C365.3 541 319.7 541 274 541C228.3 541 182.7 541 137 541C91.3 541 45.7 541 22.8 541L0 541Z" fill="#c62368"></path></svg>