<svg id="visual" viewBox="0 0 900 600" width="900" height="600" xmlns="http://www.w3.org/2000/svg" xmlns:xlink="http://www.w3.org/1999/xlink" version="1.1"><rect x="0" y="0" width="900" height="600" fill="#cedbe1"></rect><path d="M0 287L30 299.5C60 312 120 337 180 336.3C240 335.7 300 309.3 360 306.7C420 304 480 325 540 341.7C600 358.3 660 370.7 720 362.2C780 353.7 840 324.3 870 309.7L900 295L900 601L870 601C840 601 780 601 720 601C660 601 600 601 540 601C480 601 420 601 360 601C300 601 240 601 180 601C120 601 60 601 30 601L0 601Z" fill="#7e8ad6" stroke-linecap="round" stroke-linejoin="miter"></path></svg>